<svg width="238" height="253" viewBox="0 0 238 253" fill="none" xmlns="http://www.w3.org/2000/svg">
<path d="M77.2839 5.28218C74.9598 8.23882 72.0019 13.7297 70.9455 17.3199C66.72 30.2025 60.1703 66.1046 61.6493 67.3717C69.6778 74.3409 108.976 81.3101 127.779 78.9871C143.625 77.2976 159.471 73.7074 166.021 70.3283L171.514 67.5829L166.866 43.7185C161.373 17.3199 158.626 9.08357 153.767 3.59267C148.696 -2.10943 142.78 -1.05349 134.963 6.97169C123.131 19.2206 106.44 18.5871 94.1861 5.28218C87.6365 -1.68705 82.7771 -1.68705 77.2839 5.28218Z" fill="white"/>
<path d="M41.1551 85.7451C19.3934 93.1367 14.3227 103.063 26.7882 112.355C44.9581 125.871 96.2987 133.051 142.569 128.616C181.655 125.026 205.741 117.001 210.6 106.23C212.713 101.795 212.29 100.317 208.065 95.8821C205.318 92.9255 197.923 88.7017 191.585 86.3786L179.965 81.9437L167.077 86.1675C135.808 96.5157 101.158 96.9381 71.3679 87.4346C52.1415 81.3101 53.4092 81.3101 41.1551 85.7451Z" fill="white"/>
<path d="M206.797 121.014C204.685 122.492 199.191 125.026 194.966 126.293L186.937 129.039V141.077V153.326L168.979 164.307C139.188 182.47 115.948 206.967 101.792 235.267C91.4394 256.174 92.2845 257.442 106.863 243.292C130.737 220.272 166.021 200.632 196.022 193.874C202.572 192.184 208.065 190.284 208.065 189.65C208.065 188.805 203.839 187.538 198.557 186.905C193.276 186.06 189.05 184.581 189.05 183.526C189.05 182.47 200.036 174.867 213.347 166.63C226.657 158.394 237.644 151.002 237.644 150.369C237.644 148.891 214.615 120.591 212.291 119.113C211.445 118.691 209.121 119.535 206.797 121.014Z" fill="white"/>
<path d="M10.3086 136.008C3.12517 144.244 -0.889115 150.58 0.167276 151.847C1.22367 152.692 11.5763 159.028 23.1966 165.574C34.8169 172.121 45.1695 178.246 46.2259 179.302C47.2823 180.358 43.4793 183.314 36.7184 186.271L25.3094 191.339L59.5364 208.446C78.5515 217.949 94.8199 225.763 96.0876 225.763C97.144 225.763 99.468 222.807 101.37 219.428L104.75 213.092L85.9462 194.507C66.2973 175.078 54.2545 157.549 48.55 140.232C45.3808 130.306 44.3244 129.25 35.0282 125.871C29.3237 123.97 24.253 122.281 23.6192 122.281C22.9853 122.281 17.0695 128.405 10.3086 136.008Z" fill="white"/>
<path d="M59.1138 134.741C56.5785 138.965 60.3815 145.512 67.1424 149.102C71.3679 151.214 78.974 152.692 87.0025 152.692C97.7777 152.903 100.947 152.058 104.75 148.257C112.778 140.443 108.975 137.909 86.7912 136.219C75.8048 135.586 65.2409 134.318 63.5506 133.685C61.8604 133.051 59.9589 133.474 59.1138 134.741Z" fill="white"/>
<path d="M157.358 134.952C152.077 136.008 143.203 136.853 137.71 136.853C127.78 137.064 127.568 137.275 128.202 142.766C129.681 155.86 160.316 157.549 172.571 145.3C183.134 134.952 177.641 131.362 157.358 134.952Z" fill="white"/>
</svg>
